# xmcd
#
# Track frame offsets:
# 150
# 21005
# 45200
# 63230
# 90230
# 121797
# 145457
# 160885
# 186452
#
# Disc length: 2780 seconds
#
# Revision: 1
# Processed by: cddbd v1.4PL0 Copyright (c) Steve Scherf et al.
# Submitted via: Axialis_AX_CDPlayer 2.6
#
DISCID=6b0ada09
DTITLE=Richard Johnston - Foot Hill Stomp
DYEAR=2001
DGENRE=Blues
TTITLE0=Miss Maebelle
TTITLE1=Do The Romp
TTITLE2=Coal Black Mattie
TTITLE3=Catfish Blues and I Feel Good Little Girl
TTITLE4=Work Me Baby
TTITLE5=Come On In
TTITLE6=That's No Way To Get Along
TTITLE7=The Shaggy Hound
TTITLE8=Chicken And Gravy
EXTD=FTRC001 (www.intrepidartists.com)
EXTT0=
EXTT1=
EXTT2=
EXTT3=
EXTT4=
EXTT5=
EXTT6=
EXTT7=
EXTT8=
PLAYORDER=
